<svg width="24" height="24" viewBox="0 0 24 24" fill="none" xmlns="http://www.w3.org/2000/svg">
<path d="M16.4625 6.78749C16.3922 6.85721 16.3364 6.94016 16.2983 7.03156C16.2602 7.12295 16.2406 7.22098 16.2406 7.31999C16.2406 7.419 16.2602 7.51703 16.2983 7.60842C16.3364 7.69982 16.3922 7.78277 16.4625 7.85249L19.9125 11.3025L2.24998 11.3025C2.05107 11.3025 1.8603 11.3815 1.71965 11.5222C1.579 11.6628 1.49998 11.8536 1.49998 12.0525C1.49998 12.2514 1.579 12.4422 1.71965 12.5828C1.8603 12.7235 2.05107 12.8025 2.24998 12.8025L19.89 12.8025L16.4625 16.23C16.3396 16.3735 16.2754 16.558 16.2827 16.7468C16.29 16.9355 16.3682 17.1146 16.5018 17.2482C16.6354 17.3817 16.8144 17.46 17.0032 17.4673C17.1919 17.4746 17.3765 17.4104 17.52 17.2875L22.2975 12.5175C22.4234 12.391 22.4941 12.2197 22.4941 12.0412C22.4941 11.8627 22.4234 11.6915 22.2975 11.565L17.52 6.78749C17.3795 6.6478 17.1894 6.5694 16.9912 6.5694C16.7931 6.5694 16.603 6.6478 16.4625 6.78749Z" fill="#2A2A34"/>
</svg>
