<svg width="24" height="24" viewBox="0 0 24 24" fill="none" xmlns="http://www.w3.org/2000/svg">
<path fill-rule="evenodd" clip-rule="evenodd" d="M22.4088 16.992L19.4968 14.08C18.7098 13.292 17.4318 13.292 16.6448 14.08L14.2298 16.495C11.1998 15.228 8.77179 12.8 7.50479 9.77L9.91979 7.355C10.7068 6.567 10.7068 5.29 9.91979 4.503L7.00779 1.591C6.21979 0.803 4.94279 0.803 4.15479 1.591L2.77079 2.975C1.33179 4.413 0.725787 6.476 1.11579 8.472C2.53279 15.732 8.26679 21.467 15.5278 22.885C17.5238 23.274 19.5868 22.667 21.0248 21.229L22.4088 19.845C23.1968 19.057 23.1968 17.78 22.4088 16.992Z" stroke="white" stroke-width="2" stroke-linecap="round" stroke-linejoin="round"/>
</svg>
