<svg width="24" height="24" viewBox="0 0 24 24" fill="none" xmlns="http://www.w3.org/2000/svg">
<path d="M21.4424 3.21756C21.2099 3.02223 20.9286 2.89389 20.6286 2.84633C20.3287 2.79876 20.0215 2.83376 19.7399 2.94756L2.55743 9.82506C2.30696 9.9291 2.09292 10.105 1.94235 10.3306C1.79178 10.5562 1.71143 10.8213 1.71143 11.0926C1.71143 11.3638 1.79178 11.6289 1.94235 11.8545C2.09292 12.0801 2.30696 12.256 2.55743 12.3601L3.66743 12.8176C3.85044 12.895 4.0567 12.8966 4.24092 12.8221C4.42513 12.7475 4.57223 12.603 4.64993 12.4201C4.68804 12.329 4.7078 12.2313 4.70806 12.1325C4.70833 12.0338 4.68909 11.936 4.65146 11.8447C4.61384 11.7534 4.55855 11.6705 4.48879 11.6006C4.41903 11.5307 4.33615 11.4753 4.24493 11.4376L3.41993 11.1001L20.3024 4.35006C20.3284 4.33414 20.3582 4.32572 20.3887 4.32572C20.4191 4.32572 20.449 4.33414 20.4749 4.35006C20.4994 4.37084 20.5179 4.3978 20.5284 4.42813C20.539 4.45846 20.5412 4.49107 20.5349 4.52256L17.4524 18.9076C17.4423 18.9588 17.419 19.0065 17.3848 19.046C17.3506 19.0854 17.3067 19.1153 17.2574 19.1326C17.2091 19.1517 17.1565 19.1577 17.1051 19.1498C17.0537 19.1419 17.0053 19.1204 16.9649 19.0876L10.9649 14.4076L16.8374 8.47506C16.9629 8.3449 17.0371 8.17382 17.0464 7.99329C17.0558 7.81277 16.9996 7.63494 16.8882 7.49255C16.7769 7.35015 16.6178 7.25277 16.4404 7.21832C16.2629 7.18387 16.079 7.21467 15.9224 7.30506L7.31243 12.4051C7.2168 12.4483 7.1313 12.5111 7.06147 12.5894C6.99164 12.6678 6.93902 12.7599 6.90702 12.8598C6.87502 12.9598 6.86435 13.0653 6.87571 13.1696C6.88706 13.274 6.92018 13.3747 6.97293 13.4655C7.02567 13.5562 7.09687 13.6348 7.18192 13.6963C7.26696 13.7578 7.36397 13.8007 7.46665 13.8224C7.56934 13.844 7.67543 13.8439 7.77805 13.8219C7.88068 13.8 7.97756 13.7568 8.06243 13.6951L11.6849 11.5576L9.92243 13.3501C9.76119 13.5016 9.63546 13.6868 9.55425 13.8926C9.47304 14.0984 9.43836 14.3197 9.4527 14.5404C9.46703 14.7612 9.53003 14.9761 9.63717 15.1696C9.74432 15.3632 9.89295 15.5307 10.0724 15.6601L16.0724 20.2726C16.3882 20.5163 16.776 20.6482 17.1749 20.6476C17.3873 20.646 17.5979 20.608 17.7974 20.5351C18.0839 20.4322 18.3392 20.2575 18.5388 20.0277C18.7384 19.7979 18.8757 19.5206 18.9374 19.2226L21.9974 4.85256C22.0624 4.55532 22.045 4.246 21.9472 3.9579C21.8494 3.6698 21.6749 3.41383 21.4424 3.21756Z" fill="#2A2A34"/>
</svg>
