<svg width="64" height="64" viewBox="0 0 64 64" fill="none" xmlns="http://www.w3.org/2000/svg">
<g clip-path="url(#clip0_1605_738)">
<rect width="46.6261" height="46.6261" rx="4" transform="matrix(0.701517 0.712652 -0.701517 0.712652 32.5 -1.2282)" fill="#FFAE00"/>
<path fill-rule="evenodd" clip-rule="evenodd" d="M59.9156 29.6665L34.797 4.14922C33.5284 2.86049 31.4716 2.86049 30.203 4.14923L5.08439 29.6665C3.8158 30.9553 3.8158 33.0447 5.0844 34.3335L30.203 59.8508C31.4716 61.1395 33.5284 61.1395 34.797 59.8508L59.9156 34.3335C61.1842 33.0447 61.1842 30.9553 59.9156 29.6665ZM35.2842 3.65425C33.7465 2.09215 31.2535 2.09215 29.7158 3.65425L4.59715 29.1716C3.05946 30.7337 3.05947 33.2663 4.59715 34.8284L29.7158 60.3458C31.2535 61.9078 33.7465 61.9078 35.2842 60.3457L60.4028 34.8284C61.9405 33.2663 61.9405 30.7337 60.4028 29.1716L35.2842 3.65425Z" fill="#140001"/>
<path d="M43.4174 27.6581V20.3854H46.5075C47.0389 20.3854 47.5038 20.4837 47.9023 20.6802C48.3008 20.8767 48.6107 21.1596 48.8321 21.5289C49.0535 21.8982 49.1642 22.3409 49.1642 22.857C49.1642 23.3778 49.05 23.817 48.8216 24.1745C48.5956 24.532 48.2775 24.8019 47.8673 24.9841C47.4595 25.1664 46.9829 25.2576 46.4376 25.2576H44.5919V23.7235H46.0461C46.2745 23.7235 46.4691 23.6951 46.6299 23.6383C46.793 23.5791 46.9177 23.4856 47.0039 23.3577C47.0925 23.2299 47.1367 23.063 47.1367 22.857C47.1367 22.6487 47.0925 22.4794 47.0039 22.3492C46.9177 22.2166 46.793 22.1196 46.6299 22.058C46.4691 21.9941 46.2745 21.9621 46.0461 21.9621H45.3609V27.6581H43.4174ZM47.6121 24.3201L49.4019 27.6581H47.2905L45.5427 24.3201H47.6121Z" fill="#140001"/>
<path d="M37.2939 27.6581V20.3854H42.4534V21.9763H39.2374V23.2263H42.1878V24.8172H39.2374V26.0672H42.4395V27.6581H37.2939Z" fill="#140001"/>
<path d="M30.7185 27.6581V20.3854H33.8227C34.368 20.3854 34.8259 20.46 35.1965 20.6091C35.5693 20.7583 35.8502 20.969 36.0389 21.2412C36.23 21.5135 36.3256 21.8343 36.3256 22.2036C36.3256 22.4711 36.2673 22.715 36.1508 22.9351C36.0366 23.1553 35.8758 23.34 35.6684 23.4891C35.461 23.6359 35.2186 23.7377 34.9413 23.7945V23.8655C35.2489 23.8774 35.5286 23.9567 35.7802 24.1035C36.0319 24.2479 36.2323 24.4479 36.3815 24.7036C36.5306 24.9569 36.6052 25.2552 36.6052 25.5985C36.6052 25.9962 36.5027 26.3501 36.2976 26.6603C36.0948 26.9704 35.8059 27.2143 35.4307 27.3918C35.0555 27.5694 34.608 27.6581 34.0883 27.6581H30.7185ZM32.6621 26.0814H33.571C33.8972 26.0814 34.1419 26.0199 34.3051 25.8968C34.4682 25.7713 34.5498 25.5867 34.5498 25.3428C34.5498 25.1724 34.5113 25.0279 34.4344 24.9096C34.3575 24.7912 34.248 24.7012 34.1058 24.6397C33.966 24.5781 33.797 24.5474 33.599 24.5474H32.6621V26.0814ZM32.6621 23.3258H33.4591C33.6292 23.3258 33.7796 23.2985 33.9101 23.2441C34.0406 23.1896 34.1419 23.1115 34.2142 23.0097C34.2888 22.9055 34.326 22.7789 34.326 22.6297C34.326 22.4048 34.2468 22.2332 34.0883 22.1148C33.9299 21.9941 33.7295 21.9337 33.4871 21.9337H32.6621V23.3258Z" fill="#140001"/>
<path d="M22.8979 20.3854H25.0652L26.4635 23.34H26.5194L27.9176 20.3854H30.0849L27.4562 25.3712V27.6581H25.5266V25.3712L22.8979 20.3854Z" fill="#140001"/>
<path d="M22.3097 23.1127H20.3382C20.3242 22.947 20.2869 22.7966 20.2263 22.6617C20.1681 22.5268 20.0865 22.4108 19.9816 22.3137C19.8791 22.2143 19.7544 22.1385 19.6076 22.0864C19.4608 22.032 19.2942 22.0047 19.1077 22.0047C18.7815 22.0047 18.5053 22.0852 18.2793 22.2462C18.0555 22.4072 17.8854 22.638 17.7689 22.9387C17.6547 23.2393 17.5976 23.6004 17.5976 24.0218C17.5976 24.4669 17.6559 24.8397 17.7724 25.1404C17.8912 25.4387 18.0625 25.6636 18.2863 25.8151C18.51 25.9643 18.7791 26.0388 19.0937 26.0388C19.2732 26.0388 19.434 26.0163 19.5761 25.9714C19.7183 25.924 19.8418 25.8565 19.9467 25.7689C20.0516 25.6813 20.1366 25.576 20.2019 25.4529C20.2695 25.3274 20.3149 25.1866 20.3382 25.0303L22.3097 25.0445C22.2864 25.3523 22.2014 25.666 22.0546 25.9856C21.9077 26.3028 21.6992 26.5964 21.4288 26.8662C21.1608 27.1338 20.8288 27.3492 20.4326 27.5126C20.0364 27.6759 19.5761 27.7576 19.0518 27.7576C18.3946 27.7576 17.805 27.6144 17.283 27.3279C16.7633 27.0414 16.352 26.62 16.049 26.0637C15.7484 25.5073 15.5981 24.8267 15.5981 24.0218C15.5981 23.2121 15.7519 22.5303 16.0595 21.9763C16.3671 21.42 16.782 20.9998 17.304 20.7157C17.826 20.4292 18.4086 20.286 19.0518 20.286C19.5039 20.286 19.9199 20.3487 20.2997 20.4742C20.6796 20.5997 21.0129 20.7831 21.2995 21.0246C21.5861 21.2637 21.8169 21.5585 21.9916 21.9089C22.1664 22.2592 22.2725 22.6605 22.3097 23.1127Z" fill="#140001"/>
<path d="M46.975 34.3722C46.9563 34.1354 46.869 33.9508 46.7128 33.8182C46.559 33.6856 46.3248 33.6193 46.0102 33.6193C45.8098 33.6193 45.6455 33.6442 45.5173 33.6939C45.3915 33.7412 45.2982 33.8063 45.2377 33.8892C45.1771 33.9721 45.1456 34.0668 45.1433 34.1733C45.1386 34.2609 45.1538 34.3402 45.1887 34.4112C45.226 34.4799 45.2843 34.5426 45.3635 34.5994C45.4427 34.6539 45.5441 34.7036 45.6676 34.7486C45.7911 34.7936 45.9379 34.8338 46.1081 34.8693L46.6953 34.9972C47.0915 35.0824 47.4306 35.1948 47.7126 35.3345C47.9946 35.4742 48.2253 35.6387 48.4047 35.8281C48.5842 36.0152 48.7158 36.2259 48.7997 36.4602C48.8859 36.6946 48.9302 36.9503 48.9326 37.2273C48.9302 37.7055 48.8125 38.1103 48.5795 38.4418C48.3465 38.7732 48.0132 39.0253 47.5797 39.1982C47.1486 39.371 46.6301 39.4574 46.0242 39.4574C45.402 39.4574 44.859 39.3639 44.3952 39.1768C43.9338 38.9898 43.5749 38.7022 43.3185 38.3139C43.0645 37.9233 42.9364 37.4238 42.934 36.8153H44.7797C44.7914 37.0379 44.8461 37.2249 44.944 37.3764C45.0419 37.5279 45.1794 37.6428 45.3565 37.7209C45.5359 37.799 45.7492 37.8381 45.9962 37.8381C46.2036 37.8381 46.3772 37.812 46.5171 37.7599C46.6569 37.7079 46.7629 37.6357 46.8352 37.5433C46.9074 37.451 46.9447 37.3456 46.947 37.2273C46.9447 37.116 46.9086 37.0189 46.8387 36.9361C46.7711 36.8509 46.6592 36.7751 46.5031 36.7088C46.3469 36.6402 46.136 36.5762 45.8704 36.517L45.1573 36.3608C44.5234 36.2211 44.0235 35.9879 43.6576 35.6612C43.2941 35.3321 43.1135 34.8835 43.1158 34.3153C43.1135 33.8537 43.2346 33.45 43.4793 33.1044C43.7264 32.7564 44.0678 32.4853 44.5036 32.2912C44.9417 32.0971 45.4439 32 46.0102 32C46.5881 32 47.088 32.0982 47.5098 32.2947C47.9316 32.4912 48.2567 32.7682 48.4851 33.1257C48.7158 33.4808 48.8323 33.8963 48.8347 34.3722H46.975Z" fill="#140001"/>
<path d="M40.4189 34.3722C40.4003 34.1354 40.3129 33.9508 40.1567 33.8182C40.0029 33.6856 39.7687 33.6193 39.4541 33.6193C39.2537 33.6193 39.0894 33.6442 38.9612 33.6939C38.8354 33.7412 38.7422 33.8063 38.6816 33.8892C38.621 33.9721 38.5895 34.0668 38.5872 34.1733C38.5825 34.2609 38.5977 34.3402 38.6326 34.4112C38.6699 34.4799 38.7282 34.5426 38.8074 34.5994C38.8866 34.6539 38.988 34.7036 39.1115 34.7486C39.235 34.7936 39.3819 34.8338 39.552 34.8693L40.1393 34.9972C40.5354 35.0824 40.8745 35.1948 41.1565 35.3345C41.4385 35.4742 41.6692 35.6387 41.8486 35.8281C42.0281 36.0152 42.1597 36.2259 42.2436 36.4602C42.3299 36.6946 42.3741 36.9503 42.3765 37.2273C42.3741 37.7055 42.2564 38.1103 42.0234 38.4418C41.7904 38.7732 41.4571 39.0253 41.0236 39.1982C40.5925 39.371 40.074 39.4574 39.4681 39.4574C38.8459 39.4574 38.3029 39.3639 37.8391 39.1768C37.3777 38.9898 37.0188 38.7022 36.7625 38.3139C36.5084 37.9233 36.3803 37.4238 36.3779 36.8153H38.2236C38.2353 37.0379 38.2901 37.2249 38.3879 37.3764C38.4858 37.5279 38.6233 37.6428 38.8004 37.7209C38.9799 37.799 39.1931 37.8381 39.4401 37.8381C39.6475 37.8381 39.8211 37.812 39.961 37.7599C40.1008 37.7079 40.2068 37.6357 40.2791 37.5433C40.3513 37.451 40.3886 37.3456 40.3909 37.2273C40.3886 37.116 40.3525 37.0189 40.2826 36.9361C40.215 36.8509 40.1031 36.7751 39.947 36.7088C39.7909 36.6402 39.5799 36.5762 39.3143 36.517L38.6012 36.3608C37.9673 36.2211 37.4674 35.9879 37.1015 35.6612C36.738 35.3321 36.5574 34.8835 36.5597 34.3153C36.5574 33.8537 36.6786 33.45 36.9233 33.1044C37.1703 32.7564 37.5117 32.4853 37.9475 32.2912C38.3856 32.0971 38.8878 32 39.4541 32C40.032 32 40.5319 32.0982 40.9537 32.2947C41.3755 32.4912 41.7006 32.7682 41.929 33.1257C42.1597 33.4808 42.2763 33.8963 42.2786 34.3722H40.4189Z" fill="#140001"/>
<path d="M30.4362 39.3722V32.0994H35.5958V33.6903H32.3798V34.9403H35.3301V36.5312H32.3798V37.7812H35.5818V39.3722H30.4362Z" fill="#140001"/>
<path d="M23.8609 39.3722V32.0994H26.951C27.4824 32.0994 27.9473 32.1977 28.3458 32.3942C28.7443 32.5907 29.0543 32.8736 29.2756 33.2429C29.497 33.6122 29.6077 34.0549 29.6077 34.571C29.6077 35.0919 29.4935 35.531 29.2652 35.8885C29.0391 36.246 28.721 36.5159 28.3108 36.6981C27.903 36.8804 27.4264 36.9716 26.8811 36.9716H25.0354V35.4375H26.4896C26.718 35.4375 26.9126 35.4091 27.0734 35.3523C27.2365 35.2931 27.3612 35.1996 27.4474 35.0717C27.536 34.9439 27.5803 34.777 27.5803 34.571C27.5803 34.3627 27.536 34.1934 27.4474 34.0632C27.3612 33.9306 27.2365 33.8336 27.0734 33.772C26.9126 33.7081 26.718 33.6761 26.4896 33.6761H25.8045V39.3722H23.8609ZM28.0557 36.0341L29.8454 39.3722H27.7341L25.9862 36.0341H28.0557Z" fill="#140001"/>
<path d="M17.4009 39.3722V32.0994H20.4911C21.0224 32.0994 21.4873 32.206 21.8858 32.419C22.2843 32.6321 22.5943 32.9316 22.8157 33.3175C23.0371 33.7034 23.1478 34.1544 23.1478 34.6704C23.1478 35.1913 23.0336 35.6423 22.8052 36.0234C22.5791 36.4046 22.261 36.6981 21.8509 36.9041C21.4431 37.1101 20.9665 37.2131 20.4212 37.2131H18.5755V35.679H20.0297C20.258 35.679 20.4526 35.6387 20.6134 35.5582C20.7766 35.4754 20.9012 35.3582 20.9875 35.2067C21.076 35.0552 21.1203 34.8764 21.1203 34.6704C21.1203 34.4621 21.076 34.2846 20.9875 34.1378C20.9012 33.9886 20.7766 33.875 20.6134 33.7969C20.4526 33.7164 20.258 33.6761 20.0297 33.6761H19.3445V39.3722H17.4009Z" fill="#140001"/>
<path fill-rule="evenodd" clip-rule="evenodd" d="M34.1144 43.8264L34.8105 44.5335L33.5435 45.8206L34.2396 46.5277L35.5066 45.2406L36.2026 45.9477L34.9356 47.2348L35.6317 47.9419L36.8987 46.6548L37.5947 47.3619L36.298 48.6792C36.3939 48.8832 36.3939 49.122 36.298 49.326L37.6011 50.6497L36.905 51.3568L35.6317 50.0633L34.9356 50.7704L36.209 52.0639L35.5129 52.771L34.2396 51.4775L33.5435 52.1846L34.8168 53.4781L34.1208 54.1853L32.8177 52.8615C32.617 52.9589 32.3818 52.9589 32.1811 52.8615L30.8786 54.1847L30.1826 53.4776L31.4553 52.1846L30.7593 51.4775L29.4865 52.7704L28.7904 52.0633L30.0632 50.7704L29.3671 50.0633L28.0944 51.3562L27.3983 50.6491L28.7008 49.326C28.6049 49.122 28.6049 48.8832 28.7008 48.6792L27.395 47.3527L28.091 46.6456L29.3671 47.9419L30.0632 47.2348L28.7871 45.9385L29.4832 45.2314L30.7593 46.5277L31.4553 45.8206L30.1792 44.5243L30.8753 43.8172L32.1811 45.1437C32.3818 45.0463 32.617 45.0463 32.8177 45.1437L34.1144 43.8264Z" fill="#140001"/>
</g>
<defs>
<clipPath id="clip0_1605_738">
<rect width="64" height="64" fill="white"/>
</clipPath>
</defs>
</svg>
